Coordinates
version=1
nRows=24
nColumns=24
inDegrees=yes

Units are S.I. units (second, meters, Newtons, ...)
Angles are in degrees.

endheader
time	pelvis_tilt	pelvis_list	pelvis_rotation	pelvis_tx	pelvis_ty	pelvis_tz	hip_flexion_r	hip_adduction_r	hip_rotation_r	knee_angle_r	ankle_angle_r	subtalar_angle_r	mtp_angle_r	hip_flexion_l	hip_adduction_l	hip_rotation_l	knee_angle_l	ankle_angle_l	subtalar_angle_l	mtp_angle_l	lumbar_extension	lumbar_bending	lumbar_rotation
      0.97500000	      3.36078907	     -4.46934920	      0.45062970	     -0.32462964	      1.07744811	      0.35499298	      0.43278956	     10.27632524	    -10.00530577	     -6.82204908	      1.77890707	     -4.39322373	     -0.67570067	     10.21867234	     -7.16538586	      0.15446774	    -61.38342331	      1.02536739	      2.11185732	      6.19301002	      4.21675273	      8.48627954	     -1.38388586
      0.97916667	      3.35559703	     -4.39229621	      0.35638885	     -0.32004448	      1.07781560	      0.35543942	      0.03450525	     10.25484260	     -9.73119196	     -6.57000732	      1.78746342	     -4.59433153	     -0.68419166	     10.70421116	     -7.00075315	      0.29624231	    -60.98966758	      1.52183405	      1.57745895	      6.11051493	      4.16578302	      8.37714997	     -1.24384536
      0.98333333	      3.34809151	     -4.31573026	      0.25402708	     -0.31548316	      1.07816729	      0.35586093	     -0.36149961	     10.22924568	     -9.44010340	     -6.31611508	      1.79071584	     -4.82581756	     -0.69526140	     11.18027716	     -6.83454327	      0.42294771	    -60.55220540	      1.98974291	      1.00125200	      6.01164808	      4.11966921	      8.27669046	     -1.09233292
      0.98750000	      3.32202041	     -4.23473983	      0.15715296	     -0.31091068	      1.07846584	      0.35632357	     -0.73946470	     10.20383610	     -9.14800846	     -6.05801805	      1.79558315	     -5.05900789	     -0.70799396	     11.66533164	     -6.66860466	      0.54895873	    -60.07225756	      2.40103646	      0.43383422	      5.90391102	      4.08415942	      8.17007762	     -0.94008421
      0.99166667	      3.28285198	     -4.16358228	     -0.01752064	     -0.30651917	      1.07871944	      0.35688774	     -1.09190114	     10.18867828	     -8.67371626	     -5.81171606	      1.70788552	     -5.61191931	     -0.74920823	     12.15349249	     -6.53014967	      0.58446885	    -59.54504319	      2.62095593	     -0.35269454	      5.57610003	      3.96732480	      8.16787439	     -0.62789591
      0.99583333	      3.25714558	     -4.06870911	     -0.09934772	     -0.30192466	      1.07897557	      0.35726182	     -1.46018229	     10.13438537	     -8.50044666	     -5.57548072	      1.75624720	     -5.75764792	     -0.76627429	     12.61078749	     -6.34122769	      0.72154474	    -58.97619234	      3.08350539	     -0.79970560	      5.44094793	      3.99662593	      7.99935680	     -0.51265059
      1.00000000	      3.22450001	     -3.99942586	     -0.12351056	     -0.29740345	      1.07915920	      0.35761195	     -1.83200965	     10.11891440	     -8.24850810	     -5.29293063	      1.79650397	     -5.84085741	     -0.77815500	     13.09406121	     -6.17582504	      0.91570910	    -58.39259266	      3.43352618	     -1.25716593	      5.34454225	      4.00300643	      7.86851538	     -0.42487011
      1.00416667	      3.18178740	     -3.91454976	     -0.20026399	     -0.29287724	      1.07933204	      0.35796349	     -2.18218070	     10.07327533	     -8.01914715	     -5.04710378	      1.84489118	     -5.99459226	     -0.79257873	     13.55758806	     -5.99748118	      1.04457502	    -57.75607842	      3.81022411	     -1.83544736	      5.23977594	      4.00730147	      7.73922873	     -0.33442351
      1.00833333	      3.13304316	     -3.83693393	     -0.27857764	     -0.28838565	      1.07945690	      0.35832488	     -2.52243483	     10.03805534	     -7.76807672	     -4.80317624	      1.88868858	     -6.18623367	     -0.81006244	     14.01832448	     -5.83170925	      1.16183768	    -57.08113253	      4.12725825	     -2.45814795	      5.11929049	      4.00968119	      7.63062563	     -0.23795133
      1.01250000	      3.07973371	     -3.75769901	     -0.36300701	     -0.28389856	      1.07955351	      0.35868992	     -2.85610157	      9.99763270	     -7.51481402	     -4.56236442	      1.92601966	     -6.40150840	     -0.83076761	     14.47100687	     -5.66898699	      1.25976339	    -56.36521252	      4.39304031	     -3.09198595	      4.98263345	      4.01367836	      7.51639689	     -0.13352786
      1.01666667	      3.00507619	     -3.68074443	     -0.53302363	     -0.27951541	      1.07960559	      0.35912614	     -3.14491479	      9.95022233	     -7.20472334	     -4.36908141	      1.92754141	     -6.80960508	     -0.87677033	     14.92188562	     -5.52777076	      1.25801995	    -55.59693527	      4.52319575	     -3.93219160	      4.69565660	      3.96265817	      7.46924055	      0.02300280
      1.02083333	      2.95811823	     -3.61451490	     -0.51997788	     -0.27500254	      1.07961994	      0.35939706	     -3.49900673	      9.93353964	     -6.99771281	     -4.08333047	      1.96473210	     -6.88889187	     -0.89400796	     15.36495087	     -5.36516904	      1.45605972	    -54.82185721	      4.74315470	     -4.28094425	      4.58412056	      4.01435906	      7.34692449	      0.10633398
      1.02500000	      2.89372866	     -3.54224789	     -0.57936922	     -0.27049184	      1.07960938	      0.35968038	     -3.81805772	      9.89373519	     -6.79941947	     -3.84955470	      2.02983475	     -7.05613324	     -0.91596557	     15.79411590	     -5.20827471	      1.55935292	    -54.00193920	      5.02298557	     -4.85558281	      4.44845234	      4.04580617	      7.23160251	      0.18621113
      1.02916667	      2.80873972	     -3.47512504	     -0.72923679	     -0.26612489	      1.07955238	      0.36006818	     -4.09138430	      9.85181957	     -6.52360622	     -3.65819281	      2.06117244	     -7.41062373	     -0.96766929	     16.22571023	     -5.08199117	      1.55319829	    -53.12917427	      5.08920107	     -5.70845928	      4.14260095	      4.00934745	      7.16948225	      0.30388863
      1.03333333	      2.72803347	     -3.43281023	     -0.76960620	     -0.26172328	      1.07942913	      0.36036499	     -4.40152716	      9.85332823	     -6.17161775	     -3.38765757	      2.04373476	     -7.73583903	     -1.05785238	     16.66952711	     -4.96732776	      1.65809700	    -52.24790108	      5.08357127	     -6.36305475	      3.62403384	      4.00826313	      7.13645511	      0.45763358
      1.03750000	      2.68603256	     -3.36555664	     -0.77674915	     -0.25716372	      1.07934986	      0.36057325	     -4.74471480	      9.81792588	     -6.09073504	     -3.14540954	      2.11542942	     -7.79130967	     -1.07677886	     17.03775562	     -4.81196766	      1.79406569	    -51.31928162	      5.33006160	     -6.62987985	      3.51494343	      4.09139837	      7.02134176	      0.50651748
      1.04166667	      2.61831504	     -3.30759673	     -0.80805809	     -0.25264826	      1.07920281	      0.36076566	     -5.05841434	      9.78739233	     -5.93301234	     -2.91280848	      2.20629004	     -7.89817938	     -1.10317243	     17.42362988	     -4.67226657	      1.89051555	    -50.36679646	      5.54093999	     -7.14118612	      3.36182743	      4.13736456	      6.90898152	      0.55509806
      1.04583333	      2.55714534	     -3.26265371	     -0.83804063	     -0.24818739	      1.07902518	      0.36096948	     -5.37460806	      9.77160967	     -5.76575896	     -2.68004139	      2.28128671	     -8.02662600	     -1.13236528	     17.79732225	     -4.55197720	      1.97634477	    -49.38224110	      5.63748676	     -7.66793924	      3.19531152	      4.17228564	      6.84795279	      0.59925479
      1.05000000	      2.46563466	     -3.22936142	     -0.95084256	     -0.24382923	      1.07879200	      0.36125464	     -5.63442777	      9.75810566	     -5.54584103	     -2.50103295	      2.32683850	     -8.31727258	     -1.20209350	     18.18547370	     -4.47162859	      1.95836081	    -48.35772831	      5.53571347	     -8.45540128	      2.81889261	      4.11149594	      6.79260551	      0.66380956
      1.05416667	      2.41696566	     -3.20118656	     -0.91463070	     -0.23929777	      1.07855022	      0.36135849	     -5.97565012	      9.76288541	     -5.43299301	     -2.24410311	      2.37347700	     -8.35524402	     -1.22387822	     18.52793110	     -4.35688605	      2.10000479	    -47.32540595	      5.64986529	     -8.66479705	      2.70049935	      4.18680877	      6.77987213	      0.69980338
      1.05833333	      2.32247038	     -3.17703047	     -1.00540565	     -0.23487774	      1.07823940	      0.36159656	     -6.23990366	      9.75707602	     -5.22423134	     -2.05488555	      2.45396278	     -8.60658638	     -1.29931988	     18.89325287	     -4.28656482	      2.08394512	    -46.24737689	      5.62638219	     -9.37325171	      2.30824204	      4.16370339	      6.69751000	      0.75979361
      1.06250000	      2.27770351	     -3.16955125	     -0.96273900	     -0.23036536	      1.07792903	      0.36166204	     -6.57927042	      9.78086301	     -5.13503446	     -1.80793071	      2.49783104	     -8.64017027	     -1.32274474	     19.21320524	     -4.19787054	      2.20593010	    -45.16896134	      5.70819781	     -9.53681069	      2.18634056	      4.23818936	      6.72504513	      0.78453368
      1.06666667	      2.17459877	     -3.18056550	     -0.97302540	     -0.22596222	      1.07749970	      0.36175981	     -6.81637919	      9.81509568	     -5.13170651	     -1.63476015	      2.53932908	     -8.66843721	     -1.32986087	     19.59137837	     -4.14625771	      2.25700409	    -44.08197071	      5.79381233	     -9.62407377	      2.14907840	      4.15313246	      6.77454062	      0.77612346
      1.07083333	      2.14964012	     -3.16444046	     -1.03717107	     -0.22145896	      1.07720339	      0.36193289	     -7.19047962	      9.81107685	     -4.78408923	     -1.39332792	      2.63617051	     -8.94985270	     -1.43997035	     19.83370321	     -4.08422386	      2.23290548	    -42.89832827	      5.55542389	    -10.52220189	      1.59566763	      4.22687428	      6.72704790	      0.84619126
